<svg width="54" height="54" viewBox="0 0 54 54" fill="none" xmlns="http://www.w3.org/2000/svg">
<rect width="54" height="53.896" rx="12" fill="#FFFCF9"/>
<path d="M31.496 27.7288C31.496 27.801 31.618 27.8592 31.7671 27.8592C31.9159 27.8592 32.1428 27.9436 32.271 28.0461C32.3996 28.1486 32.5721 28.1486 32.6542 28.0461C32.7366 27.9439 32.7026 27.8592 32.5796 27.8592C32.4567 27.8592 32.2841 27.801 32.1964 27.7288C32.1091 27.6574 31.9159 27.5986 31.7671 27.5986C31.6176 27.5986 31.496 27.6577 31.496 27.7288Z" fill="#FF7B29"/>
<path d="M30.5437 27.4682C30.6364 27.5395 30.7288 27.6488 30.7494 27.7102C30.7494 27.7102 30.7494 27.7102 30.936 27.5987C31.1232 27.4869 31.1232 27.4869 31.1232 27.4869C31.3285 27.3978 31.6649 27.1801 31.8705 27.0023C31.8705 27.0023 31.8705 27.0023 31.497 27.0023C31.2726 27.0023 31.2726 27.0023 31.2726 27.0023C30.9644 27.0023 30.6367 27.0023 30.5441 27.0023C30.4517 27.0023 30.3762 27.0774 30.3762 27.1695C30.3759 27.262 30.4514 27.3963 30.5437 27.4682Z" fill="#FF7B29"/>
<path d="M22.2299 33.4996C22.2299 33.4909 22.2299 33.4909 22.2299 33.4909C22.3472 33.3165 22.443 33.0898 22.443 32.987C22.443 32.8849 22.4246 32.7463 22.4015 32.6793C22.379 32.6127 22.2552 32.6507 22.1272 32.7637C21.9987 32.8765 21.8517 32.9939 21.8006 33.0247C21.7491 33.0555 21.7073 33.182 21.7073 33.3047C21.7073 33.3047 21.7073 33.3047 21.7073 33.3791C21.7073 33.4535 21.8377 33.6398 21.8748 33.7145C21.9126 33.7889 22.024 33.9381 22.0336 34.0499C22.043 34.1617 22.043 34.1617 22.043 34.1617C22.1148 34.3156 22.2489 34.4417 22.3404 34.4417C22.3404 34.4417 22.3404 34.4417 22.36 34.4417C22.3797 34.4417 22.3981 34.2361 22.4355 34.1804C22.4727 34.124 22.4727 34.124 22.4727 34.124C22.4112 33.9394 22.3014 33.6628 22.2299 33.5083C22.2299 33.5087 22.2299 33.5087 22.2299 33.4996Z" fill="#FF7B29"/>
<path d="M22.9775 33.0617C22.8842 33.0804 22.8842 33.0804 22.8842 33.0804C22.7915 33.1317 22.6823 33.2952 22.6412 33.4438C22.6003 33.593 22.575 33.7985 22.585 33.901C22.585 33.901 22.585 33.901 22.716 33.8262C22.8465 33.7518 22.9775 33.7147 22.9775 33.6026C22.9775 33.4908 23.0708 33.043 22.9775 33.0617Z" fill="#FF7B29"/>
<path d="M15.4318 23.1801C15.7089 22.8185 15.9747 22.4859 16.0225 22.4407C16.0696 22.3959 16.2156 22.1835 16.3473 21.9674C16.3473 21.9674 16.3473 21.9674 16.3844 21.8926C16.4219 21.8182 16.4219 21.8182 16.4219 21.8182C16.3192 21.6756 16.2066 21.5572 16.1716 21.5572C16.1367 21.5572 16.0643 21.5494 16.0106 21.5389C16.0106 21.5389 16.0106 21.5389 15.9732 21.5572C15.9357 21.5762 15.8986 21.5946 15.8615 21.6883C15.8237 21.7811 15.7866 21.8001 15.7679 21.949C15.7491 22.0982 15.488 22.527 15.4689 22.6014C15.4499 22.6765 15.4499 22.6765 15.4499 22.6765C15.3579 22.9836 15.2146 23.4286 15.1323 23.6646C15.1323 23.6646 15.1323 23.6646 15.2817 23.4224C15.4318 23.1801 15.4318 23.1801 15.4318 23.1801Z" fill="#FF7B29"/>
<path fill-rule="evenodd" clip-rule="evenodd" d="M24.2389 15.4933C16.9273 15.4933 11 21.4092 11 28.7067C11 36.0043 16.9273 41.9202 24.2389 41.9202C31.5506 41.9202 37.4779 36.0043 37.4779 28.7067C37.4779 28.6655 37.4777 28.6243 37.4773 28.5832C37.4661 27.3551 37.2869 26.167 36.9617 25.0408C36.8873 24.7831 36.6151 24.6414 36.358 24.7177C36.0895 24.7974 35.9412 25.0832 36.0181 25.3525C36.2567 26.1888 36.4083 27.0617 36.4626 27.9609C36.3159 27.8981 36.3159 27.8983 36.3159 27.8983C36.3159 27.8983 36.353 27.9727 36.3159 28.1222C36.2919 28.2186 36.2207 28.1437 36.2139 28.1491C36.2102 28.1521 36.2257 28.1791 36.2788 28.2714C36.3654 28.4228 36.3766 28.3861 36.3853 28.3867C36.3916 28.3871 36.3966 28.4071 36.4282 28.5326L36.4849 28.7594C36.4845 28.8453 36.4833 28.931 36.4811 29.0164C36.4763 29.0174 36.4711 29.0178 36.4654 29.0178C36.3534 29.0178 36.2136 28.6074 36.2136 28.6074C36.2136 28.6074 36.017 28.1596 35.9047 28.0851L35.7926 28.0107C35.7926 28.0107 35.6432 27.8615 35.6061 27.7124C35.5903 27.6491 35.6215 27.606 35.6483 27.5687C35.6849 27.5181 35.7135 27.4784 35.6061 27.414C35.5128 27.3583 35.5315 27.3862 35.5408 27.4002C35.5502 27.4142 35.5502 27.4142 35.4195 27.3025C35.2488 27.1567 35.126 27.1218 35.03 27.0946C34.9787 27.08 34.9351 27.0676 34.8959 27.0415C34.8476 27.0094 34.8132 27.0462 34.7808 27.0808C34.7378 27.1268 34.6983 27.1691 34.6344 27.0415C34.5636 26.9003 34.6717 26.9375 34.6762 26.9277C34.6788 26.922 34.6462 26.9003 34.5224 26.8179C34.1863 26.5934 33.9994 26.4816 33.9994 26.4816C33.9994 26.4816 33.9623 26.7055 33.7373 26.4816C33.5136 26.2583 33.2521 26.2209 33.2521 26.2209C33.2521 26.2209 33.2147 26.1085 33.0278 25.9597C32.9164 25.8709 32.9376 25.9141 32.9335 25.9166C32.9308 25.9183 32.9164 25.9011 32.8407 25.8106L32.8406 25.8105L32.6537 25.5872L32.3176 25.3633H32.1682L32.0558 25.1767L31.7569 24.8043V24.5427C31.7569 24.5427 31.9441 24.8043 31.9441 24.5427C31.9441 24.4017 31.9332 24.4022 31.929 24.3972C31.9255 24.3929 31.9269 24.3846 31.9441 24.2817L31.9813 24.0581L31.7569 23.7591V23.2372C31.7569 23.2372 31.5329 22.9762 31.4209 22.9021C31.365 22.8649 31.4117 22.9114 31.4351 22.9347C31.4585 22.958 31.4585 22.958 31.3091 22.8277L31.0102 22.5664L30.599 22.1933V22.0441C30.599 22.0441 30.3378 22.2307 30.2258 22.0441C30.1138 21.8573 29.9643 21.671 29.9643 21.671V21.5219C29.9643 21.5219 29.8145 21.8202 29.74 21.5219C29.6651 21.2238 29.74 21.0746 29.74 21.0746C29.74 21.0746 29.5153 20.8881 29.4782 20.7763C29.4615 20.7266 29.4744 20.6769 29.4873 20.6271C29.5035 20.565 29.5196 20.5028 29.4782 20.4406C29.4036 20.3288 29.2913 19.8436 29.2913 19.8436L28.9927 19.2472C28.9927 19.2472 29.0669 19.0239 28.9927 18.9121C28.9178 18.8003 28.8055 18.5764 28.8055 18.5764C28.8055 18.5764 29.0669 18.3528 28.8055 18.0915C28.6581 17.9445 28.6411 17.9629 28.6278 17.9606C28.6174 17.9588 28.6092 17.9445 28.5437 17.8303L28.5437 17.8302C28.3942 17.5689 28.2822 17.308 28.2822 17.308L28.1072 17.1066C28.9867 17.3986 29.8219 17.7875 30.6001 18.2606C30.831 18.4009 31.1337 18.3437 31.2876 18.1216C31.4457 17.8934 31.3863 17.579 31.1495 17.434C29.1379 16.203 26.7715 15.4933 24.2389 15.4933ZM22.4148 40.7945C20.6365 40.5294 18.9832 39.8828 17.5411 38.9407C17.5834 38.8556 17.5457 38.7479 17.5101 38.6466C17.4792 38.5582 17.4499 38.4747 17.4767 38.4151C17.5444 38.2659 17.4767 38.0426 17.4767 38.0426C17.4767 38.0426 16.9613 37.6325 16.7915 37.558C16.7126 37.5235 16.6055 37.3986 16.492 37.2532C16.5054 37.2339 16.5132 37.2223 16.5132 37.2223C16.5132 37.2223 16.5466 37.185 16.7915 37.0732C17.0365 36.9614 17.4767 36.7378 17.4767 36.7378C17.4767 36.7378 17.9326 36.5883 17.97 36.7378C18.0075 36.8869 18.3435 36.9614 18.3435 36.9614C18.3435 36.9614 18.493 37.1105 18.6796 37.1853C18.8668 37.26 19.0908 37.4466 19.0908 37.4466C19.0908 37.4466 19.4269 37.5584 19.5767 37.4092C19.6305 37.3555 19.7231 37.3065 19.823 37.2536C20.0005 37.1598 20.2011 37.0537 20.2488 36.8869C20.2877 36.7513 20.3367 36.6154 20.3801 36.4954C20.4201 36.3845 20.4553 36.2871 20.4731 36.2158C20.5109 36.0666 20.9589 35.5073 21.1084 35.3585C21.2579 35.2093 21.4444 34.9106 21.3327 34.7615C21.2204 34.6123 20.9218 34.2392 20.8095 34.3136L20.6975 34.3884L20.1742 34.0156C20.1742 34.0156 19.7439 34.9352 19.7723 34.9415C19.801 34.948 19.9405 35.4706 19.7586 35.5821C19.6728 35.6348 19.6026 35.787 19.5406 35.9215C19.471 36.0723 19.4117 36.2008 19.3523 36.1417C19.24 36.0299 19.5018 35.2096 19.5018 35.2096L18.8665 34.9418C18.8665 34.9418 18.4184 35.1595 18.605 34.9418C18.6902 34.8427 18.8066 34.7421 18.9115 34.6514C19.0364 34.5435 19.1451 34.4496 19.1654 34.389C19.2029 34.2772 19.772 33.6431 19.772 33.6431H20.2484C20.2484 33.6431 20.6597 33.7923 20.9212 33.6431C21.1827 33.494 21.7062 32.972 21.7062 32.972V32.4497C21.7062 32.4497 22.0794 32.6737 22.1543 32.4497C22.2292 32.2258 22.1543 31.9477 22.1543 31.9477L22.0048 31.6298C22.0048 31.6298 22.0779 31.489 22.359 31.4476C22.4879 31.4284 22.5735 31.4741 22.6356 31.5072C22.7087 31.5463 22.7491 31.5679 22.7893 31.4454C22.8642 31.2193 22.7893 30.8836 22.7893 30.8836L22.8227 30.4569C22.8227 30.4569 22.6398 31.0368 22.6773 30.4569C22.7 30.1053 22.5989 30.1451 22.5825 30.1228C22.5719 30.1084 22.5969 30.0678 22.7147 29.8771C22.864 29.6348 22.864 29.6068 22.864 29.5929C22.864 29.5789 22.864 29.5789 23.0133 29.3925C23.1833 29.1805 23.2567 29.0397 23.3295 28.8997C23.3848 28.7935 23.4398 28.6879 23.5366 28.552C23.6452 28.3991 23.7175 28.2417 23.7783 28.1095C23.8432 27.9682 23.8949 27.8556 23.9637 27.8077C24.0421 27.7525 24.0211 27.704 23.9947 27.6431C23.9762 27.6004 23.9551 27.5516 23.9637 27.4903C23.9846 27.3411 23.9637 26.8939 23.9637 26.8939C23.9637 26.8939 23.686 26.3343 23.6112 26.2225C23.5858 26.1842 23.5647 26.146 23.542 26.1049C23.4981 26.0253 23.4481 25.9349 23.3494 25.812L23.2002 25.6255C23.2002 25.6255 22.8639 25.7373 22.7515 25.6255C22.6392 25.5137 22.6395 25.5137 22.6395 25.5137H22.1162C22.0775 25.5137 22.0432 25.5048 22.0103 25.4962C21.9481 25.48 21.8906 25.465 21.8176 25.5137C21.7059 25.5887 21.4067 25.7002 21.4067 25.7002L20.958 25.4813L20.5845 25.3275C20.5266 25.1736 20.5485 24.9997 20.5678 24.8469C20.5858 24.704 20.6015 24.5796 20.5474 24.5075C20.5348 24.4908 20.5204 24.4713 20.5046 24.4498C20.3787 24.2795 20.161 23.9849 20.0612 23.9849C19.9495 23.9849 19.7714 23.8357 19.7714 23.8357V23.1282L19.9492 22.718L19.9863 22.4935C19.9863 22.4935 20.0609 22.121 19.9863 21.8968C19.9603 21.8183 19.9382 21.7029 19.915 21.5815C19.8722 21.3572 19.8253 21.1121 19.7417 21.0398C19.6129 20.928 19.5386 20.5549 19.5386 20.5549L19.2394 19.9205C19.2394 19.9205 18.5673 20.1444 18.3426 20.2189C18.1186 20.2933 17.9317 20.4804 17.7822 20.8532C17.7195 21.0095 17.6804 21.1725 17.6458 21.3172C17.5978 21.5174 17.5582 21.6828 17.4758 21.7476C17.3341 21.8594 17.1472 22.0463 16.9978 22.2328C16.8483 22.4194 16.5122 22.8666 16.4748 23.0164C16.4374 23.1652 16.5494 24.0976 16.5494 24.0976C16.5494 24.0976 16.624 24.3586 16.4748 24.5078C16.3253 24.657 15.8395 25.1789 15.7649 25.3278C15.7298 25.3982 15.6033 25.5679 15.4754 25.7393C15.3319 25.9318 15.1867 26.1265 15.1671 26.1858C15.1297 26.2976 15.0554 26.8201 15.1671 26.7457C15.2791 26.6703 15.7275 26.447 15.7275 26.447C15.7275 26.447 16.0639 26.9322 15.9147 26.8949C15.7653 26.8572 15.1671 26.9811 14.8307 27.2175C14.4947 27.4539 14.0463 27.9758 14.0463 27.9758V28.5529C14.0463 28.5529 14.2332 28.6846 14.3452 28.7217C14.4569 28.7591 14.7933 28.7964 14.7933 28.7964L15.0925 29.0577C15.0925 29.0577 15.8398 29.5423 15.5784 29.5052C15.3169 29.4682 14.3084 29.0577 14.3084 29.0577C14.3084 29.0577 13.6728 29.0206 13.5608 29.0577C13.4488 29.0951 12.8135 28.6444 12.7015 28.5529C12.6177 28.4839 12.4295 28.2163 12.2774 28L12.2772 27.9998C12.2261 27.9271 12.179 27.8602 12.1414 27.8086C12.1113 27.7672 12.0751 27.7186 12.0366 27.6672C12.5651 21.4035 17.8265 16.4843 24.2389 16.4843C25.2716 16.4843 26.2743 16.6119 27.2323 16.8521L27.386 17.1591C27.386 17.1591 27.3115 17.3827 27.4235 17.4945L27.5355 17.6063L27.6472 17.7932V18.0538C27.6472 18.0538 27.4977 18.2407 27.6472 18.3151C27.7455 18.3642 27.7791 18.2843 27.7907 18.2874C27.7967 18.289 27.7967 18.3131 27.7967 18.3899V18.6138C27.7967 18.6138 27.6098 18.7626 27.5352 18.8744C27.4877 18.9453 27.5155 18.8665 27.5136 18.8657C27.5124 18.8653 27.5014 18.8909 27.4603 18.9862C27.3486 19.2472 27.2734 19.5829 27.2734 19.5829L27.0119 19.8065V20.2914C27.0119 20.2914 27.0497 20.4029 27.0119 20.553C26.9748 20.7022 27.0119 20.9258 27.0119 20.9258C27.0119 20.9258 26.9002 20.9999 26.7876 21.075C26.6759 21.1494 26.377 21.4104 26.377 21.4104C26.377 21.4104 26.5639 21.5219 26.377 21.634C26.1897 21.7458 26.0777 21.8579 26.1155 22.0071C26.1392 22.1024 26.1172 21.9842 26.1177 21.9841C26.1181 21.984 26.1255 22.0212 26.1523 22.1546L26.1526 22.1562C26.182 22.3031 26.2056 22.3863 26.2234 22.4492C26.2509 22.546 26.2646 22.5945 26.2646 22.7529C26.2646 22.9149 26.3219 22.8907 26.3301 22.902C26.3351 22.9089 26.3215 22.9293 26.2646 23.0145C26.1152 23.2378 25.8911 23.6669 25.8911 23.6669C25.8911 23.6669 26.1526 23.946 26.2646 23.9837C26.3211 24.0023 26.3776 24.0307 26.4437 24.0638C26.5088 24.0964 26.583 24.1336 26.6756 24.1708C26.8625 24.245 27.3851 24.4315 27.3851 24.4315C27.3851 24.4315 27.6466 24.5433 27.7586 24.5807C27.8709 24.618 28.2444 25.1403 28.2444 25.1403C28.2444 25.1403 28.2819 25.1403 28.6185 25.2521C28.9546 25.3639 29.0292 25.4013 29.1415 25.5128C29.2535 25.6246 29.5521 25.8858 29.5521 25.8858L29.6267 26.0721C29.6267 26.0721 29.739 25.9606 30.0754 25.9977C30.4114 26.035 30.7104 26.2963 30.7104 26.2963C30.7104 26.2963 30.8973 26.2963 31.047 26.2219C31.1965 26.1474 31.4577 25.9606 31.4577 25.9606L31.7191 25.8862L32.205 25.9232L32.5413 26.1095L32.7279 26.5202C32.7279 26.5202 32.7654 26.7065 32.8774 26.7815C32.9891 26.8556 33.2883 27.0795 33.2883 27.0795L33.1389 27.5271C33.1389 27.5271 33.2883 27.7136 33.4375 27.6385C33.5869 27.5644 33.811 27.3035 33.811 27.3035C33.811 27.3035 33.923 27.229 34.0353 27.2661C34.1473 27.3035 34.3346 27.3779 34.5211 27.5644C34.708 27.7507 34.7455 27.9372 34.7455 28.049C34.7455 28.1608 34.5211 28.6457 34.5211 28.6457L33.8862 29.0935H33.5127L33.1014 29.2801L32.6908 28.7575L32.3544 28.3477C32.3544 28.3477 31.9438 28.6086 32.0368 28.7201C32.1304 28.8325 32.2799 29.0562 32.2799 29.0562C32.2799 29.0562 32.093 29.3545 32.0368 29.4663C32.0093 29.521 31.9774 29.5578 31.9345 29.6074C31.8897 29.6591 31.8329 29.7246 31.7566 29.8388C31.6071 30.0627 31.5326 30.1745 31.458 30.2863C31.3831 30.3984 31.0845 30.9203 31.0845 30.9203L30.7853 31.1446L30.5238 31.48L30.3372 31.6662H30.0383L29.5147 31.9275H29.1786L29.4776 32.3L29.6645 32.5242C29.4776 32.711 28.9549 32.8222 28.9549 32.8222C28.9549 32.8222 28.4316 33.1209 28.4688 33.0091C28.5059 32.8973 28.9175 32.3747 28.9175 32.3747L28.6189 32.1511C28.6189 32.1511 28.2822 32.0767 28.2076 32.1882C28.1327 32.3 28.0956 32.5612 28.0956 32.5612L28.2076 33.0337V33.5687C28.2076 33.7549 28.2822 34.2395 28.3945 34.1651C28.5062 34.0903 28.6192 34.5002 28.6192 34.5002V35.0227L29.0298 34.65C29.0298 34.65 29.3284 34.6873 29.2913 34.7991C29.2541 34.9109 29.0669 35.0231 29.0669 35.0231L29.4779 35.3591C29.4779 35.3591 29.9262 35.6571 30.0011 35.5456C30.0757 35.4338 30.188 35.1355 30.188 35.1355L30.3749 34.725V34.4637L30.5244 34.091L30.9731 33.6434L31.1974 33.1962C31.1974 33.1962 31.2717 33.7552 31.2717 33.867C31.2717 33.9788 31.7575 34.4261 31.7575 34.4261L31.8695 34.8739C31.8695 34.8739 31.7201 35.1722 31.7201 35.284C31.7201 35.3955 31.5332 35.6194 31.3837 35.7686C31.2343 35.9178 30.8608 36.2164 30.7487 36.2906C30.6367 36.365 30.3753 36.5145 30.3753 36.5145L30.4495 35.8807L29.9643 35.9551L30.0389 36.2906L29.6276 36.5145L29.4036 37.1115C29.4036 37.1115 29.1793 37.6334 29.0672 37.5593C28.9555 37.4846 28.6937 37.1485 28.6937 37.1485L29.105 36.3285H29.4407L29.5528 35.9928C29.5528 35.9928 29.3658 35.9555 29.2164 35.8437C29.0669 35.7319 28.8058 35.4338 28.8058 35.4338L28.3571 35.7689V36.0673H28.021L27.7967 36.5521L27.8716 36.8879C27.8716 36.8879 27.8716 36.9997 27.8341 37.1485L27.7967 37.298L27.9461 37.5658V38.2301L28.1705 38.6396H28.8797L30.0386 39.1996H30.3375L30.438 39.2498C29.7195 39.6715 28.9541 40.0222 28.1515 40.2921C28.1222 40.0855 28.0617 39.8753 27.9926 39.7592C27.895 39.5951 27.723 39.4437 27.6095 39.4235L27.46 39.4612C27.3105 39.4979 27.0116 39.871 26.9374 39.9825C26.8625 40.0943 26.3392 40.3926 26.1897 40.4674L26.1223 40.5013C26.0281 40.5013 25.9342 40.5057 25.9142 40.5104L25.8911 40.5044L25.8088 40.4848C25.8874 40.4932 26.0119 40.3867 26.0868 40.2463L26.3395 40.0575L26.6384 39.8336C26.7208 39.6194 26.7208 39.3176 26.6384 39.1625L26.4144 38.7894C26.3941 38.6867 26.3773 38.5692 26.3773 38.5278V38.416C26.3773 38.3601 26.3865 38.2483 26.3958 38.1365L26.3958 38.1363C26.3964 38.1293 26.397 38.1223 26.3976 38.1153C26.4062 38.0108 26.4144 37.9094 26.4144 37.857C26.4144 37.8011 26.4705 37.6239 26.5266 37.4467C26.5827 37.2695 26.6387 37.0923 26.6387 37.0364C26.6387 36.9249 26.7042 36.6244 26.7845 36.2564L26.7851 36.2535L27.011 36.1043C27.1676 36.0009 27.1242 35.9155 27.071 35.8107C27.0474 35.7643 27.0219 35.7141 27.011 35.6568C26.9966 35.5814 27.0365 35.5426 27.0718 35.5082C27.1237 35.4578 27.1656 35.417 27.011 35.284C26.8577 35.152 26.8338 35.1757 26.817 35.1714C26.8053 35.1685 26.797 35.152 26.7511 35.0601C26.6838 34.9257 26.6838 34.9257 26.6461 34.9634C26.621 34.9885 26.5792 35.0302 26.4896 35.0601L26.2793 35.1299C25.9411 35.5469 25.6721 35.8813 25.6796 35.877C25.6743 35.8807 25.6693 35.8845 25.6618 35.8904C25.6608 35.8913 25.6598 35.8922 25.6589 35.8929C25.658 35.8936 25.6572 35.8943 25.6565 35.895L25.6479 35.9015L25.6375 35.91L25.6303 35.9162L25.5695 35.9614L25.5688 35.962L25.4808 36.0299C25.2379 36.2161 25.1911 36.2628 25.1677 36.2861C25.1443 36.3094 25.1443 36.3094 24.995 36.4024C24.8189 36.5121 24.8758 36.5185 24.8763 36.528C24.8767 36.5346 24.8495 36.5427 24.6959 36.5889L24.6958 36.5889L24.3223 36.701C24.0758 36.8243 23.7394 37.1261 23.575 37.3724L23.5375 37.4839C23.5273 37.5143 23.5144 37.5365 23.5033 37.5556C23.4734 37.6068 23.4562 37.6363 23.5375 37.7449C23.5934 37.8195 23.6588 37.7635 23.6915 37.7355C23.7243 37.7075 23.7243 37.7075 23.6492 37.8941C23.5703 38.0907 23.5522 38.1835 23.5394 38.2493C23.5279 38.3081 23.5206 38.3453 23.4779 38.4157C23.4438 38.4724 23.4594 38.4753 23.4829 38.4796C23.5212 38.4867 23.5802 38.4975 23.4779 38.7517L23.3132 39.1619C23.2514 39.264 23.3019 39.4151 23.4255 39.4973L23.2012 39.6465C22.9778 39.795 22.9184 39.879 22.8467 39.9802L22.8458 39.9816C22.774 40.0843 22.7993 40.2522 22.9019 40.3543L22.7153 40.4661C22.6429 40.5094 22.6042 40.5072 22.5774 40.5058C22.5349 40.5034 22.5224 40.5028 22.4535 40.6872C22.4353 40.7364 22.4231 40.7706 22.4148 40.7945ZM16.3734 37.4388C16.2939 37.5677 16.1987 37.7331 16.1388 37.8736C16.4531 38.1505 16.7818 38.4115 17.1236 38.6555C16.9819 38.3944 16.7372 37.7437 16.7372 37.7437L16.3734 37.4388ZM19.7595 30.6746L19.9882 30.3598C19.9882 30.3598 20.2497 30.5416 20.1751 30.6752C20.1454 30.7279 20.0982 30.7478 20.059 30.7645C19.9994 30.7897 19.9583 30.8071 20.0257 30.9197C20.138 31.1063 20.474 31.3299 20.474 31.3299H20.7733C20.7733 31.3299 21.2588 31.5908 21.3708 31.3299C21.397 31.2688 21.4212 31.2033 21.4453 31.1382C21.5239 30.9251 21.6012 30.7157 21.7446 30.6749C21.9312 30.6217 22.6036 30.0988 22.2676 30.1739C21.9312 30.2486 21.7446 30.3978 21.7446 30.3978C21.3143 30.505 21.1248 30.4409 21.0112 30.4025C21.0063 30.4009 21.0016 30.3993 20.997 30.3978C20.9665 30.3876 20.9027 30.3746 20.8253 30.3589L20.8252 30.3588C20.6184 30.3168 20.3145 30.255 20.2875 30.1739C20.2497 30.0617 19.7595 29.6516 19.7595 29.6516L19.3532 29.4654L18.9423 29.726L18.6063 29.6887H17.9335C17.9335 29.6887 17.4477 29.8226 17.3731 29.9612C17.2982 30.0988 17.1862 30.4566 17.1862 30.4566H18.1204L18.6434 30.9194H18.9049L18.8677 30.4719L19.4656 30.6746H19.7595ZM17.9707 31.9459C18.0827 31.8141 18.3442 31.7023 18.3442 31.7023L18.1204 31.4454C17.8212 31.441 17.5597 31.4454 17.5597 31.4454L16.9619 31.4432L16.7375 31.6646C16.7375 31.6646 17.1491 31.8512 17.1862 31.963C17.2237 32.0751 17.4293 32.4479 17.4293 32.4479L17.6346 31.9459C17.6346 31.9459 17.859 32.0779 17.9707 31.9459ZM16.7375 28.5501C16.8124 28.7936 16.9993 29.0549 16.9993 29.0549H17.3731C17.3731 29.0549 17.3357 28.234 17.1862 28.1225C17.0371 28.0107 16.7004 27.6753 16.5884 27.4888C16.4764 27.3022 16.14 26.8924 16.14 26.8924C16.14 26.8924 16.0654 27.178 16.14 27.5383C16.1828 27.7448 16.3484 27.9669 16.4961 28.1648C16.606 28.3121 16.7058 28.446 16.7375 28.5501Z" fill="#FF7B29"/>
<path d="M41.163 17.848C41.6506 17.005 41.7809 16.0021 41.5252 15.0599C41.2695 14.1177 40.6487 13.3135 39.7994 12.8241C38.9501 12.3347 37.9419 12.2002 36.9965 12.4503C36.0511 12.7003 35.246 13.3144 34.7584 14.1575C33.3851 16.5314 34.2832 22.3601 34.2832 22.3601C34.2832 22.3601 39.7897 20.222 41.163 17.848ZM36.2094 15.0444C36.7577 14.0966 37.9756 13.7744 38.9311 14.3251C39.3897 14.5893 39.7249 15.0235 39.8629 15.5322C40.001 16.0409 39.9306 16.5823 39.6673 17.0375C39.404 17.4926 38.9694 17.8242 38.459 17.9592C37.9486 18.0942 37.4042 18.0216 36.9457 17.7574C36.487 17.4931 36.1518 17.0588 36.0137 16.55C35.8756 16.0413 35.946 15.4997 36.2094 15.0444Z" fill="#FF7B29"/>
</svg>
