<svg width="158" height="158" viewBox="0 0 158 158" fill="none" xmlns="http://www.w3.org/2000/svg">
<g filter="url(#filter0_d_1_277)">
<rect x="50" y="20" width="58" height="58" rx="12" fill="white"/>
</g>
<path d="M78.1248 55.5744L76.7628 55.5431C76.3294 55.5431 75.958 55.2612 75.8032 54.8539C75.6484 54.4467 75.7723 53.9768 76.0818 53.6948L79.2701 50.7814V38.9398C79.2701 38.4386 78.8677 38 78.3415 38H65.9286C65.4334 38 65 38.4073 65 38.9398V59.8349C65 60.3361 65.4024 60.7747 65.9286 60.7747H70.2004V56.5142C70.2004 56.3263 70.3552 56.1383 70.5719 56.1383H73.7912C73.9769 56.1383 74.1626 56.295 74.1626 56.5142V60.7434H78.3105C78.2177 60.5241 78.1867 60.3048 78.1867 60.0855V55.5744H78.1248ZM67.5073 42.981C67.5073 42.8244 67.6312 42.699 67.7859 42.699H70.6647C70.8195 42.699 70.9433 42.8244 70.9433 42.981V45.8944C70.9433 46.051 70.8195 46.1763 70.6647 46.1763H67.7859C67.6312 46.1763 67.5073 46.051 67.5073 45.8944V42.981ZM71.0052 52.1911C71.0052 52.3478 70.8814 52.4731 70.7266 52.4731H67.8478C67.6931 52.4731 67.5692 52.3478 67.5692 52.1911V49.2777C67.5692 49.1211 67.6931 48.9958 67.8478 48.9958H70.7266C70.8814 48.9958 71.0052 49.1211 71.0052 49.2777V52.1911ZM73.2649 42.9497C73.2649 42.793 73.3887 42.6677 73.5435 42.6677H76.4533C76.608 42.6677 76.7319 42.793 76.7319 42.9497V45.8631C76.7319 46.0197 76.608 46.145 76.4533 46.145H73.5745C73.4197 46.145 73.2959 46.0197 73.2959 45.8631V42.9497H73.2649ZM73.6054 52.4731C73.4507 52.4731 73.3268 52.3478 73.3268 52.1911V49.2777C73.3268 49.1211 73.4507 48.9958 73.6054 48.9958H76.4842C76.639 48.9958 76.7628 49.1211 76.7628 49.2777V52.1911C76.7628 52.3478 76.639 52.4731 76.4842 52.4731H73.6054Z" fill="url(#paint0_linear_1_277)"/>
<path d="M90.5308 52.3889V48.1598H88.2402V50.2587L85.2066 47.4393C85.1137 47.3453 84.9899 47.314 84.8661 47.314C84.7423 47.314 84.6185 47.3453 84.5256 47.4393L76.7869 54.4879L79.1704 54.5505V60.0954C79.1704 60.44 79.449 60.7219 79.7895 60.7219H83.1945V57.5579C83.1945 57.182 83.5041 56.8687 83.8755 56.8687H85.9186C86.29 56.8687 86.5996 57.182 86.5996 57.5579V60.7219H89.9737C90.3142 60.7219 90.5928 60.44 90.5928 60.0954V54.6758L92.8525 54.5192L90.5308 52.3889ZM86.321 53.2035C86.321 53.4854 86.1043 53.7047 85.8257 53.7047H83.9684C83.6898 53.7047 83.4731 53.4854 83.4731 53.2035V52.7022C83.4731 52.4203 83.6898 52.201 83.9684 52.201H85.8257C86.1043 52.201 86.321 52.4203 86.321 52.7022V53.2035Z" fill="url(#paint1_linear_1_277)"/>
<defs>
<filter id="filter0_d_1_277" x="0" y="0" width="158" height="158" filterUnits="userSpaceOnUse" color-interpolation-filters="sRGB">
<feFlood flood-opacity="0" result="BackgroundImageFix"/>
<feColorMatrix in="SourceAlpha" type="matrix" values="0 0 0 0 0 0 0 0 0 0 0 0 0 0 0 0 0 0 127 0" result="hardAlpha"/>
<feMorphology radius="10" operator="erode" in="SourceAlpha" result="effect1_dropShadow_1_277"/>
<feOffset dy="30"/>
<feGaussianBlur stdDeviation="30"/>
<feColorMatrix type="matrix" values="0 0 0 0 0 0 0 0 0 0 0 0 0 0 0 0 0 0 0.14 0"/>
<feBlend mode="normal" in2="BackgroundImageFix" result="effect1_dropShadow_1_277"/>
<feBlend mode="normal" in="SourceGraphic" in2="effect1_dropShadow_1_277" result="shape"/>
</filter>
<linearGradient id="paint0_linear_1_277" x1="72.1351" y1="38" x2="72.1351" y2="60.7747" gradientUnits="userSpaceOnUse">
<stop stop-color="#FD8C4D"/>
<stop offset="1" stop-color="#FD6C4D"/>
</linearGradient>
<linearGradient id="paint1_linear_1_277" x1="84.8197" y1="47.314" x2="84.8197" y2="60.7219" gradientUnits="userSpaceOnUse">
<stop stop-color="#FD8C4D"/>
<stop offset="1" stop-color="#FD6C4D"/>
</linearGradient>
</defs>
</svg>
