<svg width="54" height="54" viewBox="0 0 54 54" fill="none" xmlns="http://www.w3.org/2000/svg">
<rect width="54" height="53.896" rx="12" fill="white"/>
<path fill-rule="evenodd" clip-rule="evenodd" d="M22.1765 11.7773H30.8235C31.3352 11.7773 31.75 12.1348 31.75 12.5757V18.9634H28.9706V17.8988C28.9706 17.3109 28.4175 16.8342 27.7353 16.8342H25.2647C24.5825 16.8342 24.0294 17.3109 24.0294 17.8988V18.9634H21.25V12.5757C21.25 12.1348 21.6648 11.7773 22.1765 11.7773ZM28.0441 17.8988V18.9634H24.9559V17.8988C24.9559 17.7518 25.0941 17.6327 25.2647 17.6327H27.7353C27.9059 17.6327 28.0441 17.7518 28.0441 17.8988ZM20.3235 18.9634V12.5757C20.3235 11.6938 21.1531 10.9788 22.1765 10.9788H30.8235C31.8469 10.9788 32.6765 11.6938 32.6765 12.5757V18.9634H34.2206C35.7556 18.9634 37 20.0359 37 21.3588V37.8604C37 39.1834 35.7556 40.2558 34.2206 40.2558H18.7794C17.2444 40.2558 16 39.1834 16 37.8604V21.3588C16 20.0359 17.2444 18.9634 18.7794 18.9634H20.3235ZM22.1765 23.7542C21.8353 23.7542 21.5588 23.9925 21.5588 24.2865V35.465C21.5588 35.759 21.8353 35.9973 22.1765 35.9973C22.5176 35.9973 22.7941 35.759 22.7941 35.465V24.2865C22.7941 23.9925 22.5176 23.7542 22.1765 23.7542ZM26.5 23.7542C26.1589 23.7542 25.8824 23.9925 25.8824 24.2865V35.465C25.8824 35.759 26.1589 35.9973 26.5 35.9973C26.8411 35.9973 27.1176 35.759 27.1176 35.465V24.2865C27.1176 23.9925 26.8411 23.7542 26.5 23.7542ZM30.2059 24.2865C30.2059 23.9925 30.4824 23.7542 30.8235 23.7542C31.1647 23.7542 31.4412 23.9925 31.4412 24.2865V35.465C31.4412 35.759 31.1647 35.9973 30.8235 35.9973C30.4824 35.9973 30.2059 35.759 30.2059 35.465V24.2865Z" fill="#FF7B29"/>
<path d="M18.9344 41.3203H22.6403V42.1187C22.6403 42.5597 22.2255 42.9172 21.7139 42.9172H19.8609C19.3492 42.9172 18.9344 42.5597 18.9344 42.1187V41.3203Z" fill="#FF7B29"/>
<path d="M30.3592 41.3203H34.0651V42.1187C34.0651 42.5597 33.6503 42.9172 33.1386 42.9172H31.2857C30.774 42.9172 30.3592 42.5597 30.3592 42.1187V41.3203Z" fill="#FF7B29"/>
</svg>
