<svg width="54" height="54" viewBox="0 0 54 54" fill="none" xmlns="http://www.w3.org/2000/svg">
<rect width="54" height="53.896" rx="12" fill="white"/>
<path fill-rule="evenodd" clip-rule="evenodd" d="M36.782 11.6661C36.85 12.1083 36.546 12.5217 36.1031 12.5896L17.2127 15.4841C17.0955 15.502 16.9889 15.5486 16.8995 15.6159C16.9611 15.6105 17.0234 15.6077 17.0864 15.6077H37.0232C38.1755 15.6077 39.1096 16.5402 39.1096 17.6906V40.8342C39.1096 41.9846 38.1755 42.9172 37.0232 42.9172H17.0864C15.9341 42.9172 15 41.9846 15 40.8342V19.3106V17.6906V16.1703C15 15.0277 15.8353 14.0561 16.9665 13.8828L35.8569 10.9883C36.2998 10.9204 36.714 11.2239 36.782 11.6661ZM21.9141 29.9166C22.016 29.9166 22.0993 29.9563 22.0993 30.0057C22.0993 30.0542 22.0162 30.0946 21.9141 30.0946C21.8125 30.0946 21.6806 30.0544 21.6209 30.0057C21.561 29.9563 21.4432 29.9166 21.3592 29.9166C21.2753 29.9166 21.2521 29.8587 21.3083 29.7889C21.3644 29.7189 21.4822 29.7189 21.57 29.7889C21.6576 29.8589 21.8125 29.9166 21.9141 29.9166ZM22.7497 30.1837C22.6864 30.135 22.6233 30.0604 22.6092 30.0184L22.4818 30.0946L22.354 30.171C22.2137 30.2318 21.984 30.3805 21.8436 30.502H22.0987H22.2519H22.7494C22.8125 30.502 22.8641 30.4507 22.8641 30.3877C22.8643 30.3246 22.8127 30.2329 22.7497 30.1837ZM25.951 21.2118C25.9489 21.2116 25.946 21.2114 25.9423 21.211C25.9301 21.2098 25.9097 21.2078 25.8854 21.2069C25.8976 21.202 25.9106 21.2007 25.9263 21.2046L25.9286 21.2051C25.9467 21.2095 25.9544 21.2113 25.9543 21.2118C25.9543 21.2119 25.9539 21.212 25.953 21.2119C25.9525 21.2119 25.9518 21.2119 25.951 21.2118ZM28.4267 26.0635V26.0695C28.3466 26.1886 28.2812 26.3435 28.2812 26.4137C28.2812 26.4835 28.2938 26.5781 28.3095 26.6239C28.3249 26.6694 28.4095 26.6435 28.4968 26.5662C28.5846 26.4892 28.685 26.409 28.72 26.388C28.7551 26.3669 28.7837 26.2805 28.7837 26.1967V26.1459C28.7837 26.11 28.7393 26.036 28.7042 25.9777C28.6897 25.9534 28.6767 25.9318 28.6692 25.9168C28.6624 25.9034 28.6522 25.8864 28.6406 25.8674C28.6082 25.814 28.5656 25.7439 28.5608 25.6876L28.5544 25.6113C28.5054 25.5062 28.4137 25.42 28.3513 25.42H28.3379C28.3317 25.42 28.3256 25.4502 28.3184 25.4864L28.3184 25.4864C28.31 25.5283 28.3 25.5781 28.2863 25.5985L28.261 25.637C28.3029 25.7632 28.3779 25.9521 28.4267 26.0576V26.0635ZM27.9802 26.3501L27.9165 26.3629C27.8709 26.372 27.8906 26.2177 27.9055 26.1014C27.9114 26.0552 27.9165 26.015 27.9165 25.9934C27.9165 25.9328 27.9724 25.9043 28.0398 25.87C28.0577 25.8608 28.0764 25.8513 28.0951 25.8406L28.1846 25.7896C28.1914 25.8595 28.1741 25.9999 28.1462 26.1018C28.1181 26.2033 28.0435 26.315 27.9802 26.3501ZM33.0701 33.1128C32.8809 33.3598 32.6994 33.587 32.6668 33.6179C32.6346 33.6485 32.5349 33.7936 32.4449 33.9412L32.4196 33.9923L32.394 34.0431C32.4641 34.1406 32.541 34.2214 32.5649 34.2214C32.5888 34.2214 32.6382 34.2267 32.6749 34.2339L32.7004 34.2214L32.7009 34.2212C32.7263 34.2083 32.7515 34.1955 32.7767 34.1318C32.7846 34.1124 32.7925 34.0977 32.8 34.0837C32.8169 34.0521 32.8318 34.0243 32.8406 33.9538C32.8487 33.8893 32.9231 33.7484 32.9799 33.6407C33.0129 33.5782 33.04 33.5268 33.0448 33.5081L33.0578 33.4568C33.1206 33.2471 33.2184 32.9431 33.2747 32.7818L33.1726 32.9473L33.0701 33.1128ZM18.0137 29.2626C18.0137 24.2855 22.0694 20.2364 27.0548 20.2364C32.04 20.2364 36.0959 24.2853 36.0959 29.2624C36.0959 34.2395 32.04 38.2884 27.0548 38.2884C22.0694 38.2884 18.0137 34.2397 18.0137 29.2626ZM32.6194 22.679C32.3745 22.4724 32.1184 22.2793 31.8516 22.1006C31.8356 22.2044 31.8231 22.3537 31.8714 22.4016C31.9481 22.4784 32.1778 23.0893 32.1778 23.0893L32.4263 23.2976C32.532 23.1261 32.6784 22.8602 32.6085 22.8092C32.5765 22.7862 32.5859 22.7394 32.6194 22.679ZM30.1139 27.9182L29.9577 28.1332C29.9577 28.1332 29.7791 28.009 29.83 27.9177C29.8503 27.8818 29.8826 27.8681 29.9093 27.8568C29.9501 27.8395 29.9782 27.8276 29.9321 27.7507C29.8554 27.6233 29.6259 27.4706 29.6259 27.4706H29.4216C29.4216 27.4706 29.09 27.2923 29.0135 27.4706C28.9956 27.5123 28.9791 27.557 28.9627 27.6015C28.9089 27.7471 28.8561 27.8901 28.7582 27.9179C28.6308 27.9543 28.1716 28.3115 28.4011 28.2602C28.6308 28.2092 28.7582 28.1073 28.7582 28.1073C29.0521 28.034 29.1815 28.0778 29.2591 28.104C29.2624 28.1051 29.2656 28.1062 29.2688 28.1073C29.2896 28.1142 29.3332 28.1231 29.3861 28.1339C29.5273 28.1626 29.7349 28.2048 29.7533 28.2602C29.7791 28.3368 30.1139 28.617 30.1139 28.617L30.3913 28.7442L30.672 28.5661L30.9015 28.5917H31.3609C31.3609 28.5917 31.6926 28.5002 31.7436 28.4055C31.7947 28.3115 31.8712 28.0671 31.8712 28.0671H31.2332L30.8761 27.7509H30.6975L30.7229 28.0566L30.3146 27.9182H30.1139ZM31.3355 27.0498C31.259 27.1398 31.0804 27.2161 31.0804 27.2161L31.2332 27.3916C31.4376 27.3946 31.6161 27.3916 31.6161 27.3916L32.0244 27.3931L32.1776 27.2419C32.1776 27.2419 31.8966 27.1145 31.8712 27.0381C31.8456 26.9615 31.7052 26.7069 31.7052 26.7069L31.565 27.0498C31.565 27.0498 31.4118 26.9596 31.3355 27.0498ZM32.1776 29.3694C32.1265 29.2031 31.9989 29.0246 31.9989 29.0246H31.7436C31.7436 29.0246 31.7691 29.5853 31.8712 29.6615C31.9731 29.7379 32.203 29.967 32.2795 30.0944C32.356 30.2218 32.5857 30.5018 32.5857 30.5018C32.5857 30.5018 32.6366 30.3067 32.5857 30.0606C32.5565 29.9195 32.4434 29.7678 32.3425 29.6326C32.2675 29.532 32.1993 29.4405 32.1776 29.3694ZM26.1046 24.3377L26.0997 24.3419C26.0982 24.3432 26.0956 24.3453 26.0926 24.3477C26.089 24.3504 26.087 24.3519 26.0867 24.3521C26.0862 24.3526 26.0857 24.3531 26.0851 24.3536C26.0845 24.3541 26.0838 24.3546 26.0831 24.3553C26.0798 24.358 26.0771 24.36 26.0747 24.3618C26.0734 24.3627 26.0722 24.3636 26.071 24.3645C26.0761 24.3615 25.8924 24.59 25.6614 24.8748L25.5178 24.9225C25.4566 24.9429 25.4281 24.9714 25.4109 24.9885C25.3852 25.0143 25.3851 25.0143 25.3392 24.9225C25.3078 24.8597 25.3022 24.8484 25.2942 24.8464C25.2827 24.8435 25.2664 24.8597 25.1617 24.7695C25.0561 24.6786 25.0848 24.6508 25.1202 24.6163C25.1443 24.5929 25.1716 24.5664 25.1617 24.5149C25.1543 24.4758 25.1369 24.4415 25.1208 24.4098C25.0844 24.3382 25.0548 24.2798 25.1617 24.2092L25.316 24.1073L25.3164 24.1053C25.3712 23.8539 25.4159 23.6486 25.4159 23.5725C25.4159 23.5343 25.4542 23.4132 25.4925 23.2922C25.5308 23.1711 25.5691 23.0501 25.5691 23.0119C25.5691 22.9737 25.5755 22.8974 25.5818 22.821C25.5882 22.7446 25.5945 22.6682 25.5945 22.6301V22.5537C25.5945 22.5254 25.583 22.4452 25.5691 22.375L25.4927 22.2476L25.4162 22.1201C25.3599 22.0142 25.3599 21.8081 25.4162 21.6617L25.6203 21.5087L25.7929 21.3798C25.844 21.2839 25.9291 21.2111 25.9828 21.2169L25.9265 21.2035L25.9107 21.1994C25.8971 21.2026 25.833 21.2056 25.7686 21.2056L25.7226 21.2288C25.6205 21.2798 25.2632 21.4836 25.212 21.56C25.1613 21.6362 24.9572 21.891 24.8551 21.9161L24.753 21.9419C24.6755 21.928 24.558 21.8247 24.4914 21.7125C24.4249 21.6009 24.3701 21.3615 24.3701 21.1813C24.3701 21.1388 24.4146 21.088 24.4948 21.0314C23.8016 21.2469 23.1453 21.5464 22.5388 21.9193L22.89 22.0948H23.0941L23.8855 22.4773H24.3699L24.5231 22.7571V22.9609V23.2108L24.6252 23.3938L24.5996 23.4959C24.574 23.5976 24.574 23.6739 24.574 23.6739L24.6252 23.9033L24.472 24.2345H24.2425V24.4383L23.936 24.6672C23.936 24.6672 23.7577 24.4636 23.6556 24.3872C23.5536 24.3109 23.4259 24.2853 23.4259 24.2853L23.5024 24.056H23.7317L24.0125 23.4959C24.0125 23.4959 23.8338 23.2663 23.7575 23.2153C23.681 23.1647 23.5278 23.5212 23.5278 23.5212L23.3748 23.929L23.0939 24.082L23.1448 24.3111L22.8135 24.3619L22.8642 23.929C22.8642 23.929 22.6856 24.0311 22.6091 24.082C22.5326 24.1326 22.2776 24.3366 22.1755 24.4385C22.0734 24.5404 21.9458 24.6933 21.9458 24.7695C21.9458 24.8459 21.8437 25.0497 21.8437 25.0497L21.9202 25.3556C21.9202 25.3556 22.252 25.6611 22.252 25.7374C22.252 25.8138 22.3027 26.1957 22.3027 26.1957L22.4559 25.8902L22.7624 25.5845L22.8644 25.3298V25.1514L22.9921 24.871C22.9921 24.871 23.0688 24.6672 23.1197 24.5908C23.1708 24.5147 23.4771 24.7182 23.4771 24.7182L23.7577 24.9478C23.7577 24.9478 23.6298 25.0244 23.6045 25.1007C23.5791 25.1771 23.783 25.2026 23.783 25.2026L24.0635 24.948V25.305C24.0635 25.305 24.1406 25.5849 24.2169 25.5339C24.2936 25.483 24.3445 25.814 24.3445 25.9412V26.3067L24.421 26.6294C24.421 26.6294 24.3957 26.8079 24.3445 26.8843C24.2936 26.9604 24.0637 26.9096 24.0637 26.9096L23.8598 26.7569C23.8598 26.7569 24.1408 26.3999 24.1662 26.3235C24.1915 26.2471 23.8342 26.4512 23.8342 26.4512C23.8342 26.4512 23.4773 26.5271 23.3496 26.6547L23.4773 26.8079L23.6814 27.0623H23.4519L23.0943 27.2408H22.8902L22.7628 27.368L22.5842 27.5971L22.3799 27.7503C22.3799 27.7503 22.1759 28.1069 22.1248 28.1834C22.0739 28.2598 22.0229 28.3362 21.9209 28.4891C21.8688 28.5671 21.83 28.6119 21.7994 28.6472C21.7701 28.681 21.7483 28.7062 21.7295 28.7436C21.6912 28.8199 21.5635 29.0237 21.5635 29.0237C21.5635 29.0237 21.6656 29.1765 21.7295 29.2533C21.793 29.3294 21.5126 29.5077 21.5126 29.5077L21.2829 29.2277L21.0025 28.8708L20.7216 28.9982H20.4666L20.0329 29.3041C20.0329 29.3041 19.8797 29.6353 19.8797 29.7117C19.8797 29.7881 19.9053 29.9155 20.0329 30.0427C20.1603 30.1701 20.2882 30.221 20.3647 30.2465C20.4414 30.2718 20.5179 30.221 20.5179 30.221C20.5179 30.221 20.6709 30.0427 20.773 29.9921C20.8748 29.9408 20.9769 30.0682 20.9769 30.0682L20.8748 30.3739C20.8748 30.3739 21.0792 30.5269 21.1555 30.5775C21.232 30.6288 21.2575 30.756 21.2575 30.756L21.385 31.0366L21.6147 31.1638L21.9464 31.1891L22.125 31.1383C22.125 31.1383 22.3034 31.0106 22.4054 30.9598C22.5077 30.909 22.6354 30.909 22.6354 30.909C22.6354 30.909 22.8395 31.0874 23.069 31.113C23.2987 31.1383 23.3754 31.0621 23.3754 31.0621L23.4263 31.1893C23.4263 31.1893 23.6303 31.3678 23.7068 31.4442C23.7835 31.5204 23.8344 31.5459 24.0639 31.6223C24.2938 31.6986 24.3194 31.6986 24.3194 31.6986C24.3194 31.6986 24.5745 32.0554 24.6512 32.0809C24.7277 32.1064 24.9062 32.1828 24.9062 32.1828C24.9062 32.1828 25.2632 32.3102 25.3908 32.3609C25.454 32.3863 25.5047 32.4117 25.5491 32.434C25.5942 32.4566 25.6329 32.4759 25.6714 32.4887C25.7479 32.5145 25.9265 32.7051 25.9265 32.7051C25.9265 32.7051 25.7735 32.9982 25.6714 33.1507C25.6326 33.209 25.6233 33.2229 25.6267 33.2276C25.6323 33.2353 25.6714 33.2188 25.6714 33.3294C25.6714 33.4376 25.6808 33.4708 25.6996 33.5369C25.7118 33.5798 25.7279 33.6367 25.7479 33.737C25.7664 33.829 25.7715 33.8547 25.7717 33.8546C25.7721 33.8545 25.7571 33.7738 25.7733 33.8389C25.7991 33.9408 25.7226 34.0174 25.5947 34.0938C25.4671 34.1704 25.5947 34.2465 25.5947 34.2465C25.5947 34.2465 25.3906 34.4248 25.3143 34.4756C25.2374 34.5269 25.1611 34.5775 25.1611 34.5775C25.1611 34.5775 25.1864 34.7303 25.1611 34.8322C25.1353 34.9347 25.1611 35.0109 25.1611 35.0109V35.1891V35.3421L24.9825 35.4948C24.9825 35.4948 24.9312 35.7242 24.8549 35.9024C24.8268 35.9676 24.8193 35.9851 24.8185 35.9848C24.8172 35.9843 24.8362 35.9304 24.8037 35.9788C24.7528 36.0552 24.6252 36.1569 24.6252 36.1569V36.3098C24.6252 36.3622 24.6252 36.3787 24.6293 36.3798C24.6372 36.3819 24.6601 36.3273 24.7272 36.3609C24.8293 36.4117 24.7272 36.5393 24.7272 36.5393V36.7174L24.8035 36.845L24.88 36.9214C24.9565 36.9978 24.9056 37.1505 24.9056 37.1505L25.1607 37.66H25.1089C25.7347 37.8047 26.3859 37.8806 27.0548 37.8806C31.4644 37.8806 35.1121 34.5631 35.6262 30.2942C35.6241 30.2848 35.6228 30.2795 35.6228 30.2795C35.6228 30.2795 35.4185 30.0163 35.3164 29.8759C35.2907 29.8407 35.2585 29.7949 35.2235 29.7452C35.1197 29.5974 34.9912 29.4146 34.9339 29.3675C34.8574 29.305 34.4236 28.9971 34.3471 29.0227C34.2706 29.048 33.8365 29.0227 33.8365 29.0227C33.8365 29.0227 33.1478 28.7423 32.9693 28.717C32.7907 28.6917 33.301 29.0227 33.301 29.0227L33.5054 29.2011C33.5054 29.2011 33.7351 29.2267 33.8114 29.2522C33.8879 29.2775 34.0155 29.3675 34.0155 29.3675V29.7617C34.0155 29.7617 33.7093 30.1182 33.4798 30.2797C33.2501 30.4412 32.8416 30.5258 32.7395 30.5001C32.6377 30.4746 32.8674 30.806 32.8674 30.806C32.8674 30.806 33.1736 30.6535 33.2501 30.602C33.3264 30.5511 33.2757 30.9081 33.2501 30.9845C33.2367 31.025 33.1375 31.158 33.0395 31.2894C32.9522 31.4066 32.8658 31.5224 32.8418 31.5706C32.7909 31.6722 32.4591 32.0288 32.3571 32.1307C32.2552 32.2326 32.3061 32.4109 32.3061 32.4109C32.3061 32.4109 32.3826 33.0478 32.3571 33.1495C32.3315 33.2518 32.102 33.5573 31.9999 33.6847C31.8979 33.8121 31.7702 33.9398 31.6735 34.0161C31.6172 34.0605 31.5901 34.1734 31.5574 34.3102C31.5337 34.409 31.5071 34.5203 31.4642 34.6271C31.3622 34.8817 31.2345 35.0096 31.0815 35.0604C30.9281 35.1113 30.4691 35.2642 30.4691 35.2642L30.2647 34.8309C30.2647 34.8309 30.214 34.576 30.126 34.4997C30.0689 34.4503 30.037 34.2829 30.0077 34.1296C29.9918 34.0467 29.9768 33.9679 29.959 33.9142C29.908 33.7611 29.959 33.5066 29.959 33.5066L29.9843 33.3533L30.1058 33.0731V32.5898C30.1058 32.5898 29.9841 32.4879 29.9078 32.4879C29.8397 32.4879 29.691 32.2867 29.6051 32.1703C29.5942 32.1556 29.5844 32.1423 29.5758 32.1309C29.5389 32.0816 29.5496 31.9967 29.5619 31.8991C29.575 31.7947 29.59 31.6759 29.5505 31.5708L29.2954 31.4657L28.989 31.3161C28.989 31.3161 28.7846 31.3923 28.7084 31.4436C28.6585 31.4768 28.6193 31.4666 28.5768 31.4555C28.5543 31.4497 28.5309 31.4436 28.5044 31.4436H28.1471C28.1471 31.4436 28.1473 31.4436 28.0706 31.3672C27.9939 31.2908 27.7642 31.3672 27.7642 31.3672L27.6623 31.2398C27.5949 31.1559 27.5608 31.0941 27.5308 31.0397C27.5153 31.0116 27.5009 30.9855 27.4835 30.9594C27.4324 30.883 27.2427 30.5007 27.2427 30.5007C27.2427 30.5007 27.2285 30.1952 27.2427 30.0933C27.2486 30.0514 27.2342 30.0181 27.2216 29.989C27.2036 29.9474 27.1892 29.9142 27.2427 29.8766C27.2897 29.8438 27.3251 29.7669 27.3694 29.6704C27.4109 29.58 27.4603 29.4726 27.5345 29.3681C27.6005 29.2753 27.6381 29.2031 27.6758 29.1306C27.7256 29.035 27.7757 28.9388 27.8918 28.794C27.9938 28.6667 27.9938 28.6667 27.9938 28.6571C27.9938 28.6476 27.9938 28.6285 28.0957 28.463C28.1762 28.3327 28.1933 28.305 28.186 28.2951C28.1748 28.2799 28.1058 28.3071 28.1213 28.0669C28.1469 27.6707 28.022 28.0669 28.022 28.0669L28.0448 27.7754C28.0448 27.7754 27.9937 27.5461 28.0448 27.3916C28.0722 27.308 28.0999 27.3227 28.1498 27.3494C28.1922 27.372 28.2506 27.4032 28.3386 27.3902C28.5306 27.3619 28.5805 27.2657 28.5805 27.2657L28.4784 27.0485C28.4784 27.0485 28.4273 26.8585 28.4784 26.7056C28.5296 26.5526 28.7844 26.7056 28.7844 26.7056V26.3488C28.7844 26.3488 29.142 25.9923 29.3206 25.8904C29.4991 25.7885 29.78 25.8904 29.78 25.8904H30.1054C30.1054 25.8904 30.494 25.4573 30.5196 25.3809C30.5335 25.3395 30.6077 25.2754 30.693 25.2016C30.7647 25.1397 30.8441 25.071 30.9023 25.0033C31.0297 24.8546 30.7237 25.0033 30.7237 25.0033L30.2899 24.8203C30.2899 24.8203 30.4687 24.26 30.392 24.1836C30.3514 24.1433 30.3109 24.2311 30.2634 24.3341C30.221 24.4259 30.1731 24.5299 30.1145 24.5659C29.9903 24.6421 30.0855 24.999 30.1051 25.0035C30.1245 25.0078 29.8307 25.636 29.8307 25.636L29.4733 25.3813L29.3968 25.4324C29.3201 25.4832 29.1162 25.2284 29.0395 25.1265C28.9632 25.0246 29.0906 24.8206 29.1927 24.7187C29.2948 24.617 29.6008 24.2349 29.6266 24.133C29.6387 24.0843 29.6627 24.0178 29.6901 23.942C29.7197 23.86 29.7532 23.7672 29.7798 23.6746C29.8123 23.5607 29.9493 23.4882 30.0705 23.4241C30.1388 23.388 30.202 23.3545 30.2388 23.3178C30.341 23.2159 30.5705 23.2923 30.5705 23.2923C30.5705 23.2923 30.7235 23.4197 30.8514 23.4708C30.9788 23.5218 31.0809 23.6237 31.0809 23.6237C31.0809 23.6237 31.3104 23.6746 31.3359 23.7765C31.3615 23.8786 31.6728 23.7765 31.6728 23.7765C31.6728 23.7765 31.9735 23.6237 32.1408 23.5474C32.308 23.471 32.3308 23.4455 32.3308 23.4455C32.3308 23.4455 32.3324 23.4432 32.3353 23.4389C32.3377 23.4354 32.3411 23.4304 32.3453 23.4244C32.2678 23.3251 32.1947 23.2397 32.1408 23.2161C32.0249 23.1653 31.6728 22.8851 31.6728 22.8851C31.6728 22.8851 31.6266 22.7326 31.6728 22.6307C31.6911 22.59 31.6712 22.5329 31.65 22.4726C31.6183 22.382 31.5839 22.2841 31.6728 22.2229C31.7417 22.175 31.7894 22.1225 31.8209 22.0793C30.8103 21.4092 29.6508 20.9454 28.4036 20.7489C28.3923 20.7752 28.3755 20.8146 28.3504 20.8727C28.3136 20.9588 28.3123 20.9619 28.3122 20.9651C28.3122 20.9685 28.3136 20.9719 28.2741 21.0786C28.227 21.2046 28.2185 21.2042 28.1895 21.2026C28.1712 21.2016 28.1447 21.2001 28.0953 21.2296L27.9679 21.306C28.038 21.3758 28.0552 21.4904 28.0062 21.5607L28.0056 21.5616C27.9566 21.6307 27.916 21.6881 27.7635 21.7896L27.6103 21.8914C27.6947 21.9476 27.7292 22.0508 27.687 22.1206L27.5745 22.4007C27.5046 22.5744 27.545 22.5818 27.5711 22.5866C27.5871 22.5896 27.5978 22.5915 27.5745 22.6303C27.5453 22.6784 27.5404 22.7038 27.5326 22.7439C27.5238 22.7889 27.5114 22.8523 27.4575 22.9866C27.4223 23.0743 27.4113 23.1016 27.4151 23.1039C27.4225 23.1083 27.4838 23.0217 27.5338 23.0885C27.5893 23.1627 27.5776 23.1829 27.5572 23.2178C27.5496 23.2309 27.5408 23.246 27.5338 23.2668L27.5082 23.3429C27.3959 23.5112 27.1662 23.7173 26.9979 23.8016L26.7428 23.8782C26.6379 23.9097 26.6193 23.9153 26.6195 23.9198C26.6199 23.9263 26.6587 23.9306 26.5385 24.0056C26.4365 24.0691 26.4365 24.0691 26.4205 24.085C26.4046 24.1009 26.3726 24.1328 26.2067 24.26L26.1466 24.3064L26.1046 24.3377ZM26.0963 24.3449C26.0949 24.3459 26.0937 24.3469 26.0926 24.3477C26.085 24.3539 26.0747 24.3623 26.0712 24.3653C26.0749 24.3624 26.0788 24.3593 26.0829 24.356C26.0842 24.355 26.0856 24.3539 26.087 24.3528C26.087 24.3528 26.0869 24.3529 26.0869 24.3529C26.0868 24.3531 26.0866 24.3531 26.0865 24.3532C26.0865 24.3532 26.0868 24.3532 26.0869 24.3529C26.0878 24.3523 26.0899 24.3507 26.0926 24.3484C26.0934 24.3478 26.0943 24.347 26.0953 24.3463C26.0925 24.3485 26.0898 24.3506 26.087 24.3528C26.0899 24.3503 26.0929 24.3478 26.0958 24.3453C26.096 24.3452 26.0961 24.345 26.0963 24.3449ZM26.1244 24.3235C26.1127 24.3324 26.1029 24.3398 26.0963 24.3449C26.0992 24.3424 26.102 24.34 26.1044 24.3379C26.1221 24.3246 26.1268 24.3213 26.1244 24.3235ZM26.1244 24.3235C26.1307 24.3187 26.1375 24.3134 26.1447 24.3079L26.1461 24.3068C26.1395 24.312 26.1333 24.3169 26.1274 24.3216C26.1207 24.3268 26.1145 24.3316 26.1089 24.3357C26.1166 24.3298 26.1225 24.3251 26.1244 24.3235ZM18.4501 29.4069C18.4501 29.4069 18.4401 29.3981 18.4235 29.3835C18.4237 29.3986 18.4239 29.4137 18.4239 29.429C18.4384 29.4152 18.4501 29.4069 18.4501 29.4069ZM18.4319 29.6243L18.4301 29.623C18.5888 33.4526 21.2622 36.6451 24.8423 37.5934L24.6254 37.4307L24.2936 37.0488C24.2936 37.0488 24.2171 36.8706 24.115 36.6921C24.0703 36.614 24.0647 36.6043 24.0576 36.603C24.0485 36.6014 24.0369 36.614 23.9363 36.5136C23.7577 36.3351 23.9363 36.1824 23.9363 36.1824C23.9363 36.1824 23.8595 36.0294 23.8084 35.9531C23.7577 35.8767 23.8084 35.7242 23.8084 35.7242L23.6045 35.3168C23.6045 35.3168 23.5278 34.9853 23.4768 34.909C23.4486 34.8664 23.4596 34.824 23.4706 34.7815C23.4794 34.7476 23.4882 34.7136 23.4768 34.6796C23.4515 34.6033 23.2981 34.4758 23.2981 34.4758C23.2981 34.4758 23.3492 34.3739 23.2981 34.1704C23.2471 33.9666 23.1448 34.1704 23.1448 34.1704V34.0685C23.1448 34.0685 23.0428 33.9412 22.9663 33.8136C22.8898 33.6862 22.7114 33.8136 22.7114 33.8136V33.7117L22.4306 33.4569L22.2264 33.2784C22.1245 33.1893 22.1245 33.1893 22.1404 33.2052C22.1564 33.2211 22.1883 33.253 22.1502 33.2275C22.0737 33.1769 21.9207 32.9986 21.9207 32.9986V32.8201V32.6421L21.7675 32.4379L21.7928 32.2851C21.8046 32.2148 21.8055 32.2091 21.8031 32.2062C21.8003 32.2028 21.7928 32.2032 21.7928 32.1069C21.7928 31.9282 21.9207 32.1069 21.9207 32.1069V31.9282L21.7165 31.6737L21.6398 31.5463H21.5377L21.3082 31.3934L21.1806 31.2408C21.1288 31.179 21.119 31.1672 21.1171 31.1684C21.1144 31.17 21.1288 31.1995 21.0528 31.1389C20.9251 31.0372 20.8995 30.9604 20.8995 30.9604C20.8995 30.9604 20.721 30.9349 20.5682 30.7824C20.4146 30.6294 20.3892 30.7824 20.3892 30.7824C20.3892 30.7824 20.2616 30.706 20.0321 30.5526C19.9475 30.4964 19.9253 30.4816 19.9271 30.4777C19.9301 30.471 20.0039 30.4964 19.9556 30.3999C19.9119 30.3128 19.8849 30.3416 19.8556 30.3731C19.8334 30.3967 19.81 30.4218 19.777 30.3999C19.7503 30.3821 19.7204 30.3736 19.6854 30.3637C19.6199 30.3451 19.536 30.3212 19.4194 30.2216C19.3302 30.1454 19.3302 30.1454 19.3365 30.1549C19.3429 30.1645 19.3557 30.1835 19.292 30.1455C19.2186 30.1015 19.2382 30.0744 19.2631 30.0398C19.2815 30.0143 19.3028 29.9849 19.292 29.9417C19.2667 29.8398 19.1646 29.7379 19.1646 29.7379L19.0881 29.687C19.0114 29.6362 18.8771 29.3303 18.8771 29.3303C18.8771 29.3303 18.7817 29.0499 18.7052 29.0499C18.6287 29.0499 18.6796 29.1773 18.6796 29.1773L18.7305 29.3813C18.7521 29.4671 18.7556 29.4807 18.7599 29.481C18.7658 29.4814 18.7734 29.4564 18.8326 29.5598C18.8688 29.6228 18.8794 29.6413 18.8769 29.6433C18.8723 29.647 18.8236 29.5958 18.8072 29.6617C18.7819 29.7638 18.8072 29.8147 18.8072 29.8147C18.8072 29.8147 18.8072 29.8149 18.6287 29.7383C18.5449 29.7024 18.5397 29.7001 18.5394 29.6974C18.5391 29.6943 18.5449 29.6905 18.4501 29.6364C18.443 29.6324 18.4375 29.6284 18.4319 29.6243Z" fill="#FF7B29"/>
</svg>
