<svg width="170" height="46" viewBox="0 0 170 46" fill="none" xmlns="http://www.w3.org/2000/svg">
<circle cx="23" cy="23" r="22.5" stroke="#F5F5F5"/>
<path d="M23.8946 29V23.7982H25.6636L25.9284 21.576H23.8945V20.1573C23.8945 19.514 24.0597 19.0755 24.9124 19.0755L26 19.075V17.0876C25.8119 17.0605 25.1662 17 24.4152 17C22.8471 17 21.7735 18.0355 21.7735 19.9373V21.576H20V23.7982H21.7735V28.9999L23.8946 29Z" fill="#BCBCBC"/>
<circle cx="147" cy="23" r="22.5" stroke="#F5F5F5"/>
<path d="M150.023 17.0027V17H150.726L150.983 17.0506C151.154 17.0835 151.31 17.1265 151.45 17.1798C151.589 17.2331 151.725 17.2952 151.855 17.3663C151.986 17.4373 152.105 17.5097 152.211 17.5834C152.317 17.6562 152.411 17.7334 152.495 17.8151C152.578 17.8977 152.707 17.919 152.883 17.879C153.059 17.8391 153.248 17.7836 153.451 17.7125C153.654 17.6415 153.855 17.5616 154.053 17.4728C154.252 17.384 154.372 17.3276 154.416 17.3037C154.458 17.2788 154.481 17.2655 154.483 17.2637L154.486 17.2597L154.5 17.253L154.513 17.2464L154.527 17.2397L154.54 17.2331L154.543 17.2291L154.547 17.2264L154.551 17.2238L154.554 17.2198L154.567 17.2158L154.581 17.2131L154.578 17.2331L154.574 17.253L154.567 17.273L154.56 17.293L154.554 17.3063L154.547 17.3196L154.54 17.3396C154.536 17.3529 154.531 17.3707 154.527 17.3929C154.522 17.4151 154.479 17.5039 154.398 17.6593C154.317 17.8147 154.215 17.9723 154.094 18.1321C153.972 18.2919 153.863 18.4126 153.766 18.4943C153.669 18.5769 153.605 18.6346 153.573 18.6675C153.541 18.7012 153.503 18.7323 153.458 18.7607L153.39 18.8047L153.377 18.8113L153.363 18.818L153.361 18.822L153.357 18.8246L153.353 18.8273L153.35 18.8313L153.336 18.838L153.323 18.8446L153.32 18.8486L153.316 18.8513L153.312 18.8539L153.309 18.8579L153.307 18.8619L153.303 18.8646L153.298 18.8673L153.296 18.8713H153.363L153.742 18.7913C153.995 18.7381 154.236 18.6737 154.466 18.5982L154.831 18.4784L154.872 18.465L154.892 18.4584L154.905 18.4517L154.919 18.4451L154.932 18.4384L154.946 18.4317L154.973 18.4277L155 18.4251V18.4517L154.993 18.4544L154.986 18.4584L154.984 18.4624L154.98 18.465L154.976 18.4677L154.973 18.4717L154.97 18.4757L154.966 18.4784L154.962 18.481L154.959 18.485L154.957 18.489L154.953 18.4917L154.946 18.505L154.939 18.5183L154.935 18.521C154.933 18.5236 154.876 18.5991 154.763 18.7474C154.651 18.8966 154.59 18.972 154.581 18.9738C154.572 18.9765 154.559 18.9898 154.543 19.0138C154.528 19.0386 154.432 19.1376 154.256 19.3108C154.08 19.4839 153.908 19.638 153.739 19.7729C153.57 19.9088 153.484 20.0757 153.482 20.2737C153.48 20.4708 153.469 20.6937 153.451 20.9423C153.433 21.1909 153.4 21.4595 153.35 21.748C153.3 22.0366 153.224 22.3629 153.12 22.727C153.016 23.091 152.89 23.4462 152.741 23.7924C152.592 24.1387 152.437 24.4495 152.275 24.7248C152.112 25 151.963 25.2331 151.828 25.424C151.693 25.6149 151.555 25.7947 151.416 25.9634C151.276 26.1321 151.099 26.3221 150.885 26.5334C150.671 26.7439 150.554 26.8593 150.534 26.8797C150.513 26.8992 150.425 26.9721 150.269 27.0981C150.114 27.225 149.947 27.352 149.768 27.479C149.591 27.6051 149.427 27.7103 149.279 27.7947C149.13 27.8791 148.95 27.9754 148.74 28.0837C148.531 28.1929 148.305 28.2941 148.061 28.3873C147.818 28.4805 147.561 28.5672 147.29 28.647C147.02 28.727 146.758 28.7891 146.506 28.8335C146.253 28.8779 145.967 28.9156 145.647 28.9468L145.167 28.9933V29H144.288V28.9933L144.173 28.9867C144.096 28.9822 144.033 28.9778 143.983 28.9734C143.934 28.969 143.747 28.9445 143.422 28.9001C143.097 28.8557 142.843 28.8113 142.658 28.7669C142.473 28.7225 142.198 28.6382 141.833 28.5139C141.468 28.3896 141.155 28.264 140.895 28.137C140.637 28.0109 140.474 27.931 140.408 27.8972C140.344 27.8644 140.271 27.8236 140.189 27.7747L140.068 27.7015L140.065 27.6975L140.061 27.6948L140.057 27.6922L140.054 27.6881L140.041 27.6815L140.027 27.6748L140.024 27.6708L140.02 27.6681L140.016 27.6655L140.014 27.6615L140.011 27.6575L140.007 27.6548H140V27.6282L140.014 27.6309L140.027 27.6348L140.088 27.6415C140.128 27.6459 140.239 27.6526 140.419 27.6615C140.6 27.6704 140.791 27.6704 140.994 27.6615C141.197 27.6526 141.404 27.6326 141.616 27.6016C141.828 27.5705 142.078 27.5172 142.367 27.4417C142.656 27.3663 142.921 27.2766 143.162 27.1727C143.403 27.0679 143.574 26.9898 143.676 26.9383C143.777 26.8877 143.931 26.7936 144.139 26.6559L144.45 26.4495L144.453 26.4455L144.457 26.4429L144.461 26.4402L144.463 26.4362L144.466 26.4321L144.47 26.4295L144.474 26.4268L144.477 26.4229L144.491 26.4189L144.504 26.4162L144.507 26.4029L144.511 26.3895L144.515 26.3869L144.518 26.3829L144.409 26.3763C144.337 26.3719 144.267 26.3673 144.2 26.3629C144.132 26.3585 144.026 26.3385 143.882 26.303C143.738 26.2674 143.582 26.2142 143.415 26.1432C143.248 26.0722 143.086 25.9878 142.928 25.8901C142.771 25.7925 142.656 25.7112 142.586 25.6464C142.517 25.5825 142.427 25.4919 142.316 25.3747C142.206 25.2566 142.11 25.1354 142.029 25.0111C141.948 24.8868 141.87 24.7434 141.796 24.5809L141.684 24.3385L141.677 24.3185L141.67 24.2985L141.666 24.2853L141.664 24.2719L141.684 24.2745L141.704 24.2786L141.853 24.2985C141.952 24.3119 142.108 24.3163 142.32 24.3119C142.532 24.3075 142.678 24.2986 142.759 24.2853C142.84 24.2719 142.89 24.263 142.908 24.2586L142.935 24.252L142.969 24.2453L143.003 24.2386L143.005 24.2347L143.009 24.2319L143.014 24.2293L143.016 24.2253L142.989 24.2187L142.962 24.212L142.935 24.2053L142.908 24.1986L142.881 24.192C142.863 24.1876 142.831 24.1787 142.786 24.1653C142.741 24.1521 142.619 24.1032 142.421 24.0189C142.223 23.9345 142.065 23.8524 141.948 23.7725C141.83 23.6923 141.718 23.6047 141.612 23.5101C141.507 23.4142 141.391 23.2908 141.265 23.1399C141.138 22.9889 141.026 22.8135 140.927 22.6137C140.827 22.4139 140.753 22.2231 140.703 22.041C140.654 21.8601 140.621 21.6751 140.606 21.4883L140.582 21.2087L140.595 21.2113L140.609 21.2153L140.622 21.222L140.636 21.2286L140.649 21.2353L140.663 21.242L140.872 21.3352C141.012 21.3973 141.186 21.4506 141.393 21.495C141.601 21.5394 141.725 21.5638 141.765 21.5682L141.826 21.5749H141.948L141.945 21.5709L141.941 21.5682L141.937 21.5656L141.934 21.5616L141.931 21.5576L141.927 21.555L141.923 21.5523L141.921 21.5483L141.907 21.5416L141.894 21.535L141.891 21.531L141.887 21.5283L141.883 21.5257L141.88 21.5217L141.867 21.515L141.853 21.5083L141.85 21.5044C141.848 21.5026 141.809 21.4741 141.734 21.4191C141.66 21.3632 141.583 21.2908 141.501 21.202C141.42 21.1132 141.339 21.02 141.258 20.9223C141.177 20.8244 141.104 20.7197 141.041 20.6093C140.978 20.4983 140.912 20.3572 140.841 20.1858C140.772 20.0153 140.719 19.8435 140.683 19.6704C140.647 19.4972 140.627 19.3263 140.622 19.1576C140.618 18.9889 140.622 18.8446 140.636 18.7248C140.649 18.6049 140.676 18.4695 140.717 18.3185C140.757 18.1676 140.816 18.0078 140.893 17.8391L141.008 17.586L141.014 17.566L141.021 17.5461L141.025 17.5434L141.028 17.5394L141.031 17.5354L141.035 17.5327L141.039 17.5354L141.041 17.5394L141.044 17.5434L141.048 17.5461L141.052 17.5487L141.055 17.5527L141.058 17.5567L141.062 17.5594L141.069 17.5727L141.075 17.586L141.079 17.5887L141.082 17.5927L141.265 17.7925C141.386 17.9256 141.531 18.0744 141.697 18.2386C141.864 18.4029 141.957 18.4881 141.975 18.4943C141.993 18.5014 142.015 18.5219 142.042 18.5556C142.069 18.5885 142.16 18.667 142.313 18.7913C142.466 18.9156 142.667 19.0599 142.915 19.2242C143.163 19.3884 143.438 19.5505 143.74 19.7103C144.042 19.8701 144.367 20.0144 144.714 20.1432C145.061 20.2719 145.304 20.3563 145.444 20.3962C145.584 20.4362 145.823 20.4872 146.161 20.5494C146.499 20.6116 146.754 20.6515 146.925 20.6693C147.096 20.687 147.214 20.6972 147.277 20.6999L147.372 20.7026L147.369 20.6826L147.365 20.6626L147.338 20.4961C147.32 20.3851 147.311 20.2297 147.311 20.03C147.311 19.8302 147.326 19.646 147.358 19.4773C147.39 19.3085 147.437 19.1376 147.5 18.9645C147.563 18.7913 147.625 18.6524 147.685 18.5476C147.747 18.4437 147.827 18.3252 147.926 18.192C148.025 18.0588 148.154 17.9212 148.312 17.7791C148.469 17.6371 148.65 17.5105 148.853 17.3996C149.055 17.2886 149.243 17.2042 149.414 17.1465C149.585 17.0888 149.73 17.0511 149.847 17.0333C149.964 17.0155 150.023 17.0053 150.023 17.0027Z" fill="#BCBCBC"/>
<circle cx="85" cy="23" r="22.5" stroke="#F5F5F5"/>
<path fill-rule="evenodd" clip-rule="evenodd" d="M81.07 17.315C81.4512 17.1667 81.8877 17.0654 82.5265 17.0363C83.1666 17.0068 83.3712 17 85.0007 17C86.6302 17 86.8347 17.0072 87.4745 17.0363C88.1128 17.0649 88.549 17.1667 88.9309 17.315C89.325 17.4682 89.6599 17.6732 89.9933 18.0071C90.3268 18.341 90.5319 18.6754 90.6855 19.07C90.8338 19.4511 90.9351 19.8875 90.9641 20.5263C90.9932 21.1661 91 21.3706 91 23C91 24.6294 90.9932 24.8335 90.9641 25.4737C90.9355 26.1124 90.8338 26.5487 90.6855 26.9301C90.5319 27.3245 90.3273 27.6595 89.9933 27.9929C89.6594 28.3263 89.325 28.5314 88.9305 28.685C88.549 28.8333 88.1128 28.9346 87.474 28.9637C86.8343 28.9932 86.6297 29 85.0003 29C83.3708 29 83.1666 28.9927 82.5265 28.9637C81.8877 28.9346 81.4519 28.8333 81.07 28.685C80.6753 28.5314 80.341 28.3262 80.0071 27.9929C79.6732 27.6597 79.4682 27.3245 79.315 26.9301C79.1667 26.5487 79.0654 26.1125 79.0363 25.4737C79.0068 24.8339 79 24.6294 79 23C79 21.3706 79.0068 21.1661 79.0363 20.5263C79.0654 19.8876 79.1667 19.4514 79.315 19.07C79.4682 18.6752 79.6732 18.3405 80.0071 18.0071C80.3411 17.6737 80.6753 17.4682 81.07 17.315ZM84.9997 21C83.8953 21 83 21.8955 83 23C83 24.1045 83.8953 25 84.9997 25C86.1043 25 87 24.1043 87 23C87 21.8957 86.1043 21 84.9997 21ZM81.6667 23C81.6667 21.1594 83.1586 19.6667 84.9997 19.6667C86.8405 19.6667 88.3333 21.1591 88.3333 23C88.3333 24.8409 86.8405 26.3333 84.9997 26.3333C83.1586 26.3333 81.6667 24.8407 81.6667 23ZM89 19.6667C89.3682 19.6667 89.6667 19.3682 89.6667 19C89.6667 18.6318 89.3682 18.3333 89 18.3333C88.6318 18.3333 88.3333 18.6318 88.3333 19C88.3333 19.3682 88.6318 19.6667 89 19.6667Z" fill="#BCBCBC"/>
</svg>
