<svg width="92" height="92" viewBox="0 0 92 92" fill="none" xmlns="http://www.w3.org/2000/svg">
<circle cx="45.806" cy="45.806" r="45.806" fill="white"/>
<path d="M79.7776 76.5325C74.4997 82.3678 67.8077 86.7453 60.3465 89.2429C52.8854 91.7405 44.9066 92.2742 37.1793 90.7923C29.452 89.3105 22.2366 85.8632 16.2287 80.7827C10.2207 75.7022 5.6227 69.1598 2.87781 61.786C0.132923 54.4122 -0.666301 46.4557 0.557171 38.6833C1.78064 30.9109 4.98556 23.5847 9.86303 17.4107C14.7405 11.2368 21.1261 6.4233 28.4043 3.4342C35.6825 0.445098 43.608 -0.618837 51.4168 0.344937L50.0141 11.7102C44.1575 10.9874 38.2134 11.7853 32.7547 14.0271C27.296 16.269 22.5069 19.8791 18.8488 24.5095C15.1907 29.14 12.787 34.6347 11.8694 40.464C10.9518 46.2933 11.5512 52.2607 13.6099 57.791C15.6685 63.3214 19.117 68.2282 23.623 72.0386C28.129 75.8489 33.5405 78.4344 39.336 79.5458C45.1315 80.6571 51.1155 80.2569 56.7114 78.3837C62.3073 76.5105 67.3263 73.2274 71.2847 68.8509L79.7776 76.5325Z" fill="#F3F3F3"/>
<path d="M45.806 5.72575C45.806 2.5635 48.3795 -0.0368881 51.517 0.357374C58.869 1.2812 65.9174 3.97931 72.0384 8.25532C79.7305 13.629 85.5869 21.2353 88.8153 30.0457C92.0438 38.856 92.4887 48.4453 90.0897 57.5168C88.1808 64.7353 84.5445 71.3487 79.5302 76.804C77.3902 79.1322 73.7459 78.8102 71.7027 76.3967C69.6595 73.9831 70.0045 70.396 72.0456 67.9808C75.319 64.1072 77.7101 59.5377 79.0188 54.5891C80.818 47.7855 80.4844 40.5935 78.063 33.9857C75.6416 27.378 71.2494 21.6732 65.4803 17.643C61.284 14.7116 56.5066 12.7689 51.5054 11.9275C48.387 11.4029 45.806 8.888 45.806 5.72575Z" fill="#D3ED68"/>
</svg>
